<svg xmlns="http://www.w3.org/2000/svg" version="1.1" xmlns:xlink="http://www.w3.org/1999/xlink" xmlns:svgjs="http://svgjs.dev/svgjs" width="1440" height="560" preserveAspectRatio="none" viewBox="0 0 1440 560"><g mask="url(&quot;#SvgjsMask1212&quot;)" fill="none"><path d="M39.19 -49.51L89.42 -20.51L89.42 37.49L39.19 66.49L-11.04 37.49L-11.04 -20.51zM89.42 37.49L139.65 66.49L139.65 124.49L89.42 153.49L39.19 124.49L39.19 66.49zM39.19 472.49L89.42 501.49L89.42 559.49L39.19 588.49L-11.04 559.49L-11.04 501.49zM189.88 37.49L240.11 66.49L240.11 124.49L189.88 153.49L139.65 124.49L139.65 66.49zM189.88 211.49L240.11 240.49L240.11 298.49L189.88 327.49L139.65 298.49L139.65 240.49zM139.65 298.49L189.88 327.49L189.88 385.49L139.65 414.49L89.42 385.49L89.42 327.49zM139.65 472.49L189.88 501.49L189.88 559.49L139.65 588.49L89.42 559.49L89.42 501.49zM240.11 -49.51L290.34 -20.51L290.34 37.49L240.11 66.49L189.88 37.49L189.88 -20.51zM290.34 37.49L340.58 66.49L340.58 124.49L290.34 153.49L240.11 124.49L240.11 66.49zM390.81 37.49L441.04 66.49L441.04 124.49L390.81 153.49L340.58 124.49L340.58 66.49zM390.81 385.49L441.04 414.49L441.04 472.49L390.81 501.49L340.58 472.49L340.58 414.49zM340.58 472.49L390.81 501.49L390.81 559.49L340.58 588.49L290.34 559.49L290.34 501.49zM441.04 -49.51L491.27 -20.51L491.27 37.49L441.04 66.49L390.81 37.49L390.81 -20.51zM491.27 385.49L541.5 414.49L541.5 472.49L491.27 501.49L441.04 472.49L441.04 414.49zM541.5 -49.51L591.73 -20.51L591.73 37.49L541.5 66.49L491.27 37.49L491.27 -20.51zM541.5 124.49L591.73 153.49L591.73 211.49L541.5 240.49L491.27 211.49L491.27 153.49zM541.5 298.49L591.73 327.49L591.73 385.49L541.5 414.49L491.27 385.49L491.27 327.49zM541.5 472.49L591.73 501.49L591.73 559.49L541.5 588.49L491.27 559.49L491.27 501.49zM641.96 -49.51L692.19 -20.51L692.19 37.49L641.96 66.49L591.73 37.49L591.73 -20.51zM692.19 37.49L742.42 66.49L742.42 124.49L692.19 153.49L641.96 124.49L641.96 66.49zM692.19 385.49L742.42 414.49L742.42 472.49L692.19 501.49L641.96 472.49L641.96 414.49zM792.65 211.49L842.88 240.49L842.88 298.49L792.65 327.49L742.42 298.49L742.42 240.49zM742.42 298.49L792.65 327.49L792.65 385.49L742.42 414.49L692.19 385.49L692.19 327.49zM742.42 472.49L792.65 501.49L792.65 559.49L742.42 588.49L692.19 559.49L692.19 501.49zM893.12 385.49L943.35 414.49L943.35 472.49L893.12 501.49L842.88 472.49L842.88 414.49zM993.58 37.49L1043.81 66.49L1043.81 124.49L993.58 153.49L943.35 124.49L943.35 66.49zM943.35 472.49L993.58 501.49L993.58 559.49L943.35 588.49L893.12 559.49L893.12 501.49zM1043.81 124.49L1094.04 153.49L1094.04 211.49L1043.81 240.49L993.58 211.49L993.58 153.49zM1094.04 211.49L1144.27 240.49L1144.27 298.49L1094.04 327.49L1043.81 298.49L1043.81 240.49zM1043.81 298.49L1094.04 327.49L1094.04 385.49L1043.81 414.49L993.58 385.49L993.58 327.49zM1144.27 -49.51L1194.5 -20.51L1194.5 37.49L1144.27 66.49L1094.04 37.49L1094.04 -20.51zM1194.5 37.49L1244.73 66.49L1244.73 124.49L1194.5 153.49L1144.27 124.49L1144.27 66.49zM1194.5 211.49L1244.73 240.49L1244.73 298.49L1194.5 327.49L1144.27 298.49L1144.27 240.49zM1144.27 298.49L1194.5 327.49L1194.5 385.49L1144.27 414.49L1094.04 385.49L1094.04 327.49zM1144.27 472.49L1194.5 501.49L1194.5 559.49L1144.27 588.49L1094.04 559.49L1094.04 501.49zM1244.73 -49.51L1294.96 -20.51L1294.96 37.49L1244.73 66.49L1194.5 37.49L1194.5 -20.51zM1294.96 211.49L1345.19 240.49L1345.19 298.49L1294.96 327.49L1244.73 298.49L1244.73 240.49zM1395.42 37.49L1445.66 66.49L1445.66 124.49L1395.42 153.49L1345.19 124.49L1345.19 66.49zM1395.42 385.49L1445.66 414.49L1445.66 472.49L1395.42 501.49L1345.19 472.49L1345.19 414.49zM1345.19 472.49L1395.42 501.49L1395.42 559.49L1345.19 588.49L1294.96 559.49L1294.96 501.49zM1445.66 -49.51L1495.89 -20.51L1495.89 37.49L1445.66 66.49L1395.42 37.49L1395.42 -20.51zM1495.89 385.49L1546.12 414.49L1546.12 472.49L1495.89 501.49L1445.66 472.49L1445.66 414.49z" stroke="url(&quot;#SvgjsLinearGradient1213&quot;)" stroke-width="2"></path><path d="M33.39 -49.51 a5.8 5.8 0 1 0 11.6 0 a5.8 5.8 0 1 0 -11.6 0zM83.62 -20.51 a5.8 5.8 0 1 0 11.6 0 a5.8 5.8 0 1 0 -11.6 0zM83.62 37.49 a5.8 5.8 0 1 0 11.6 0 a5.8 5.8 0 1 0 -11.6 0zM33.39 66.49 a5.8 5.8 0 1 0 11.6 0 a5.8 5.8 0 1 0 -11.6 0zM-16.84 37.49 a5.8 5.8 0 1 0 11.6 0 a5.8 5.8 0 1 0 -11.6 0zM-16.84 -20.51 a5.8 5.8 0 1 0 11.6 0 a5.8 5.8 0 1 0 -11.6 0zM133.85 66.49 a5.8 5.8 0 1 0 11.6 0 a5.8 5.8 0 1 0 -11.6 0zM133.85 124.49 a5.8 5.8 0 1 0 11.6 0 a5.8 5.8 0 1 0 -11.6 0zM83.62 153.49 a5.8 5.8 0 1 0 11.6 0 a5.8 5.8 0 1 0 -11.6 0zM33.39 124.49 a5.8 5.8 0 1 0 11.6 0 a5.8 5.8 0 1 0 -11.6 0zM33.39 472.49 a5.8 5.8 0 1 0 11.6 0 a5.8 5.8 0 1 0 -11.6 0zM83.62 501.49 a5.8 5.8 0 1 0 11.6 0 a5.8 5.8 0 1 0 -11.6 0zM83.62 559.49 a5.8 5.8 0 1 0 11.6 0 a5.8 5.8 0 1 0 -11.6 0zM33.39 588.49 a5.8 5.8 0 1 0 11.6 0 a5.8 5.8 0 1 0 -11.6 0zM-16.84 559.49 a5.8 5.8 0 1 0 11.6 0 a5.8 5.8 0 1 0 -11.6 0zM-16.84 501.49 a5.8 5.8 0 1 0 11.6 0 a5.8 5.8 0 1 0 -11.6 0zM184.08 37.49 a5.8 5.8 0 1 0 11.6 0 a5.8 5.8 0 1 0 -11.6 0zM234.31 66.49 a5.8 5.8 0 1 0 11.6 0 a5.8 5.8 0 1 0 -11.6 0zM234.31 124.49 a5.8 5.8 0 1 0 11.6 0 a5.8 5.8 0 1 0 -11.6 0zM184.08 153.49 a5.8 5.8 0 1 0 11.6 0 a5.8 5.8 0 1 0 -11.6 0zM184.08 211.49 a5.8 5.8 0 1 0 11.6 0 a5.8 5.8 0 1 0 -11.6 0zM234.31 240.49 a5.8 5.8 0 1 0 11.6 0 a5.8 5.8 0 1 0 -11.6 0zM234.31 298.49 a5.8 5.8 0 1 0 11.6 0 a5.8 5.8 0 1 0 -11.6 0zM184.08 327.49 a5.8 5.8 0 1 0 11.6 0 a5.8 5.8 0 1 0 -11.6 0zM133.85 298.49 a5.8 5.8 0 1 0 11.6 0 a5.8 5.8 0 1 0 -11.6 0zM133.85 240.49 a5.8 5.8 0 1 0 11.6 0 a5.8 5.8 0 1 0 -11.6 0zM184.08 385.49 a5.8 5.8 0 1 0 11.6 0 a5.8 5.8 0 1 0 -11.6 0zM133.85 414.49 a5.8 5.8 0 1 0 11.6 0 a5.8 5.8 0 1 0 -11.6 0zM83.62 385.49 a5.8 5.8 0 1 0 11.6 0 a5.8 5.8 0 1 0 -11.6 0zM83.62 327.49 a5.8 5.8 0 1 0 11.6 0 a5.8 5.8 0 1 0 -11.6 0zM133.85 472.49 a5.8 5.8 0 1 0 11.6 0 a5.8 5.8 0 1 0 -11.6 0zM184.08 501.49 a5.8 5.8 0 1 0 11.6 0 a5.8 5.8 0 1 0 -11.6 0zM184.08 559.49 a5.8 5.8 0 1 0 11.6 0 a5.8 5.8 0 1 0 -11.6 0zM133.85 588.49 a5.8 5.8 0 1 0 11.6 0 a5.8 5.8 0 1 0 -11.6 0zM234.31 -49.51 a5.8 5.8 0 1 0 11.6 0 a5.8 5.8 0 1 0 -11.6 0zM284.54 -20.51 a5.8 5.8 0 1 0 11.6 0 a5.8 5.8 0 1 0 -11.6 0zM284.54 37.49 a5.8 5.8 0 1 0 11.6 0 a5.8 5.8 0 1 0 -11.6 0zM184.08 -20.51 a5.8 5.8 0 1 0 11.6 0 a5.8 5.8 0 1 0 -11.6 0zM334.78 66.49 a5.8 5.8 0 1 0 11.6 0 a5.8 5.8 0 1 0 -11.6 0zM334.78 124.49 a5.8 5.8 0 1 0 11.6 0 a5.8 5.8 0 1 0 -11.6 0zM284.54 153.49 a5.8 5.8 0 1 0 11.6 0 a5.8 5.8 0 1 0 -11.6 0zM385.01 37.49 a5.8 5.8 0 1 0 11.6 0 a5.8 5.8 0 1 0 -11.6 0zM435.24 66.49 a5.8 5.8 0 1 0 11.6 0 a5.8 5.8 0 1 0 -11.6 0zM435.24 124.49 a5.8 5.8 0 1 0 11.6 0 a5.8 5.8 0 1 0 -11.6 0zM385.01 153.49 a5.8 5.8 0 1 0 11.6 0 a5.8 5.8 0 1 0 -11.6 0zM385.01 385.49 a5.8 5.8 0 1 0 11.6 0 a5.8 5.8 0 1 0 -11.6 0zM435.24 414.49 a5.8 5.8 0 1 0 11.6 0 a5.8 5.8 0 1 0 -11.6 0zM435.24 472.49 a5.8 5.8 0 1 0 11.6 0 a5.8 5.8 0 1 0 -11.6 0zM385.01 501.49 a5.8 5.8 0 1 0 11.6 0 a5.8 5.8 0 1 0 -11.6 0zM334.78 472.49 a5.8 5.8 0 1 0 11.6 0 a5.8 5.8 0 1 0 -11.6 0zM334.78 414.49 a5.8 5.8 0 1 0 11.6 0 a5.8 5.8 0 1 0 -11.6 0zM385.01 559.49 a5.8 5.8 0 1 0 11.6 0 a5.8 5.8 0 1 0 -11.6 0zM334.78 588.49 a5.8 5.8 0 1 0 11.6 0 a5.8 5.8 0 1 0 -11.6 0zM284.54 559.49 a5.8 5.8 0 1 0 11.6 0 a5.8 5.8 0 1 0 -11.6 0zM284.54 501.49 a5.8 5.8 0 1 0 11.6 0 a5.8 5.8 0 1 0 -11.6 0zM435.24 -49.51 a5.8 5.8 0 1 0 11.6 0 a5.8 5.8 0 1 0 -11.6 0zM485.47 -20.51 a5.8 5.8 0 1 0 11.6 0 a5.8 5.8 0 1 0 -11.6 0zM485.47 37.49 a5.8 5.8 0 1 0 11.6 0 a5.8 5.8 0 1 0 -11.6 0zM385.01 -20.51 a5.8 5.8 0 1 0 11.6 0 a5.8 5.8 0 1 0 -11.6 0zM485.47 385.49 a5.8 5.8 0 1 0 11.6 0 a5.8 5.8 0 1 0 -11.6 0zM535.7 414.49 a5.8 5.8 0 1 0 11.6 0 a5.8 5.8 0 1 0 -11.6 0zM535.7 472.49 a5.8 5.8 0 1 0 11.6 0 a5.8 5.8 0 1 0 -11.6 0zM485.47 501.49 a5.8 5.8 0 1 0 11.6 0 a5.8 5.8 0 1 0 -11.6 0zM535.7 -49.51 a5.8 5.8 0 1 0 11.6 0 a5.8 5.8 0 1 0 -11.6 0zM585.93 -20.51 a5.8 5.8 0 1 0 11.6 0 a5.8 5.8 0 1 0 -11.6 0zM585.93 37.49 a5.8 5.8 0 1 0 11.6 0 a5.8 5.8 0 1 0 -11.6 0zM535.7 66.49 a5.8 5.8 0 1 0 11.6 0 a5.8 5.8 0 1 0 -11.6 0zM535.7 124.49 a5.8 5.8 0 1 0 11.6 0 a5.8 5.8 0 1 0 -11.6 0zM585.93 153.49 a5.8 5.8 0 1 0 11.6 0 a5.8 5.8 0 1 0 -11.6 0zM585.93 211.49 a5.8 5.8 0 1 0 11.6 0 a5.8 5.8 0 1 0 -11.6 0zM535.7 240.49 a5.8 5.8 0 1 0 11.6 0 a5.8 5.8 0 1 0 -11.6 0zM485.47 211.49 a5.8 5.8 0 1 0 11.6 0 a5.8 5.8 0 1 0 -11.6 0zM485.47 153.49 a5.8 5.8 0 1 0 11.6 0 a5.8 5.8 0 1 0 -11.6 0zM535.7 298.49 a5.8 5.8 0 1 0 11.6 0 a5.8 5.8 0 1 0 -11.6 0zM585.93 327.49 a5.8 5.8 0 1 0 11.6 0 a5.8 5.8 0 1 0 -11.6 0zM585.93 385.49 a5.8 5.8 0 1 0 11.6 0 a5.8 5.8 0 1 0 -11.6 0zM485.47 327.49 a5.8 5.8 0 1 0 11.6 0 a5.8 5.8 0 1 0 -11.6 0zM585.93 501.49 a5.8 5.8 0 1 0 11.6 0 a5.8 5.8 0 1 0 -11.6 0zM585.93 559.49 a5.8 5.8 0 1 0 11.6 0 a5.8 5.8 0 1 0 -11.6 0zM535.7 588.49 a5.8 5.8 0 1 0 11.6 0 a5.8 5.8 0 1 0 -11.6 0zM485.47 559.49 a5.8 5.8 0 1 0 11.6 0 a5.8 5.8 0 1 0 -11.6 0zM636.16 -49.51 a5.8 5.8 0 1 0 11.6 0 a5.8 5.8 0 1 0 -11.6 0zM686.39 -20.51 a5.8 5.8 0 1 0 11.6 0 a5.8 5.8 0 1 0 -11.6 0zM686.39 37.49 a5.8 5.8 0 1 0 11.6 0 a5.8 5.8 0 1 0 -11.6 0zM636.16 66.49 a5.8 5.8 0 1 0 11.6 0 a5.8 5.8 0 1 0 -11.6 0zM736.62 66.49 a5.8 5.8 0 1 0 11.6 0 a5.8 5.8 0 1 0 -11.6 0zM736.62 124.49 a5.8 5.8 0 1 0 11.6 0 a5.8 5.8 0 1 0 -11.6 0zM686.39 153.49 a5.8 5.8 0 1 0 11.6 0 a5.8 5.8 0 1 0 -11.6 0zM636.16 124.49 a5.8 5.8 0 1 0 11.6 0 a5.8 5.8 0 1 0 -11.6 0zM686.39 385.49 a5.8 5.8 0 1 0 11.6 0 a5.8 5.8 0 1 0 -11.6 0zM736.62 414.49 a5.8 5.8 0 1 0 11.6 0 a5.8 5.8 0 1 0 -11.6 0zM736.62 472.49 a5.8 5.8 0 1 0 11.6 0 a5.8 5.8 0 1 0 -11.6 0zM686.39 501.49 a5.8 5.8 0 1 0 11.6 0 a5.8 5.8 0 1 0 -11.6 0zM636.16 472.49 a5.8 5.8 0 1 0 11.6 0 a5.8 5.8 0 1 0 -11.6 0zM636.16 414.49 a5.8 5.8 0 1 0 11.6 0 a5.8 5.8 0 1 0 -11.6 0zM786.85 211.49 a5.8 5.8 0 1 0 11.6 0 a5.8 5.8 0 1 0 -11.6 0zM837.08 240.49 a5.8 5.8 0 1 0 11.6 0 a5.8 5.8 0 1 0 -11.6 0zM837.08 298.49 a5.8 5.8 0 1 0 11.6 0 a5.8 5.8 0 1 0 -11.6 0zM786.85 327.49 a5.8 5.8 0 1 0 11.6 0 a5.8 5.8 0 1 0 -11.6 0zM736.62 298.49 a5.8 5.8 0 1 0 11.6 0 a5.8 5.8 0 1 0 -11.6 0zM736.62 240.49 a5.8 5.8 0 1 0 11.6 0 a5.8 5.8 0 1 0 -11.6 0zM786.85 385.49 a5.8 5.8 0 1 0 11.6 0 a5.8 5.8 0 1 0 -11.6 0zM686.39 327.49 a5.8 5.8 0 1 0 11.6 0 a5.8 5.8 0 1 0 -11.6 0zM786.85 501.49 a5.8 5.8 0 1 0 11.6 0 a5.8 5.8 0 1 0 -11.6 0zM786.85 559.49 a5.8 5.8 0 1 0 11.6 0 a5.8 5.8 0 1 0 -11.6 0zM736.62 588.49 a5.8 5.8 0 1 0 11.6 0 a5.8 5.8 0 1 0 -11.6 0zM686.39 559.49 a5.8 5.8 0 1 0 11.6 0 a5.8 5.8 0 1 0 -11.6 0zM887.32 385.49 a5.8 5.8 0 1 0 11.6 0 a5.8 5.8 0 1 0 -11.6 0zM937.55 414.49 a5.8 5.8 0 1 0 11.6 0 a5.8 5.8 0 1 0 -11.6 0zM937.55 472.49 a5.8 5.8 0 1 0 11.6 0 a5.8 5.8 0 1 0 -11.6 0zM887.32 501.49 a5.8 5.8 0 1 0 11.6 0 a5.8 5.8 0 1 0 -11.6 0zM837.08 472.49 a5.8 5.8 0 1 0 11.6 0 a5.8 5.8 0 1 0 -11.6 0zM837.08 414.49 a5.8 5.8 0 1 0 11.6 0 a5.8 5.8 0 1 0 -11.6 0zM987.78 37.49 a5.8 5.8 0 1 0 11.6 0 a5.8 5.8 0 1 0 -11.6 0zM1038.01 66.49 a5.8 5.8 0 1 0 11.6 0 a5.8 5.8 0 1 0 -11.6 0zM1038.01 124.49 a5.8 5.8 0 1 0 11.6 0 a5.8 5.8 0 1 0 -11.6 0zM987.78 153.49 a5.8 5.8 0 1 0 11.6 0 a5.8 5.8 0 1 0 -11.6 0zM937.55 124.49 a5.8 5.8 0 1 0 11.6 0 a5.8 5.8 0 1 0 -11.6 0zM937.55 66.49 a5.8 5.8 0 1 0 11.6 0 a5.8 5.8 0 1 0 -11.6 0zM987.78 501.49 a5.8 5.8 0 1 0 11.6 0 a5.8 5.8 0 1 0 -11.6 0zM987.78 559.49 a5.8 5.8 0 1 0 11.6 0 a5.8 5.8 0 1 0 -11.6 0zM937.55 588.49 a5.8 5.8 0 1 0 11.6 0 a5.8 5.8 0 1 0 -11.6 0zM887.32 559.49 a5.8 5.8 0 1 0 11.6 0 a5.8 5.8 0 1 0 -11.6 0zM1088.24 153.49 a5.8 5.8 0 1 0 11.6 0 a5.8 5.8 0 1 0 -11.6 0zM1088.24 211.49 a5.8 5.8 0 1 0 11.6 0 a5.8 5.8 0 1 0 -11.6 0zM1038.01 240.49 a5.8 5.8 0 1 0 11.6 0 a5.8 5.8 0 1 0 -11.6 0zM987.78 211.49 a5.8 5.8 0 1 0 11.6 0 a5.8 5.8 0 1 0 -11.6 0zM1138.47 240.49 a5.8 5.8 0 1 0 11.6 0 a5.8 5.8 0 1 0 -11.6 0zM1138.47 298.49 a5.8 5.8 0 1 0 11.6 0 a5.8 5.8 0 1 0 -11.6 0zM1088.24 327.49 a5.8 5.8 0 1 0 11.6 0 a5.8 5.8 0 1 0 -11.6 0zM1038.01 298.49 a5.8 5.8 0 1 0 11.6 0 a5.8 5.8 0 1 0 -11.6 0zM1088.24 385.49 a5.8 5.8 0 1 0 11.6 0 a5.8 5.8 0 1 0 -11.6 0zM1038.01 414.49 a5.8 5.8 0 1 0 11.6 0 a5.8 5.8 0 1 0 -11.6 0zM987.78 385.49 a5.8 5.8 0 1 0 11.6 0 a5.8 5.8 0 1 0 -11.6 0zM987.78 327.49 a5.8 5.8 0 1 0 11.6 0 a5.8 5.8 0 1 0 -11.6 0zM1138.47 -49.51 a5.8 5.8 0 1 0 11.6 0 a5.8 5.8 0 1 0 -11.6 0zM1188.7 -20.51 a5.8 5.8 0 1 0 11.6 0 a5.8 5.8 0 1 0 -11.6 0zM1188.7 37.49 a5.8 5.8 0 1 0 11.6 0 a5.8 5.8 0 1 0 -11.6 0zM1138.47 66.49 a5.8 5.8 0 1 0 11.6 0 a5.8 5.8 0 1 0 -11.6 0zM1088.24 37.49 a5.8 5.8 0 1 0 11.6 0 a5.8 5.8 0 1 0 -11.6 0zM1088.24 -20.51 a5.8 5.8 0 1 0 11.6 0 a5.8 5.8 0 1 0 -11.6 0zM1238.93 66.49 a5.8 5.8 0 1 0 11.6 0 a5.8 5.8 0 1 0 -11.6 0zM1238.93 124.49 a5.8 5.8 0 1 0 11.6 0 a5.8 5.8 0 1 0 -11.6 0zM1188.7 153.49 a5.8 5.8 0 1 0 11.6 0 a5.8 5.8 0 1 0 -11.6 0zM1138.47 124.49 a5.8 5.8 0 1 0 11.6 0 a5.8 5.8 0 1 0 -11.6 0zM1188.7 211.49 a5.8 5.8 0 1 0 11.6 0 a5.8 5.8 0 1 0 -11.6 0zM1238.93 240.49 a5.8 5.8 0 1 0 11.6 0 a5.8 5.8 0 1 0 -11.6 0zM1238.93 298.49 a5.8 5.8 0 1 0 11.6 0 a5.8 5.8 0 1 0 -11.6 0zM1188.7 327.49 a5.8 5.8 0 1 0 11.6 0 a5.8 5.8 0 1 0 -11.6 0zM1188.7 385.49 a5.8 5.8 0 1 0 11.6 0 a5.8 5.8 0 1 0 -11.6 0zM1138.47 414.49 a5.8 5.8 0 1 0 11.6 0 a5.8 5.8 0 1 0 -11.6 0zM1138.47 472.49 a5.8 5.8 0 1 0 11.6 0 a5.8 5.8 0 1 0 -11.6 0zM1188.7 501.49 a5.8 5.8 0 1 0 11.6 0 a5.8 5.8 0 1 0 -11.6 0zM1188.7 559.49 a5.8 5.8 0 1 0 11.6 0 a5.8 5.8 0 1 0 -11.6 0zM1138.47 588.49 a5.8 5.8 0 1 0 11.6 0 a5.8 5.8 0 1 0 -11.6 0zM1088.24 559.49 a5.8 5.8 0 1 0 11.6 0 a5.8 5.8 0 1 0 -11.6 0zM1088.24 501.49 a5.8 5.8 0 1 0 11.6 0 a5.8 5.8 0 1 0 -11.6 0zM1238.93 -49.51 a5.8 5.8 0 1 0 11.6 0 a5.8 5.8 0 1 0 -11.6 0zM1289.16 -20.51 a5.8 5.8 0 1 0 11.6 0 a5.8 5.8 0 1 0 -11.6 0zM1289.16 37.49 a5.8 5.8 0 1 0 11.6 0 a5.8 5.8 0 1 0 -11.6 0zM1289.16 211.49 a5.8 5.8 0 1 0 11.6 0 a5.8 5.8 0 1 0 -11.6 0zM1339.39 240.49 a5.8 5.8 0 1 0 11.6 0 a5.8 5.8 0 1 0 -11.6 0zM1339.39 298.49 a5.8 5.8 0 1 0 11.6 0 a5.8 5.8 0 1 0 -11.6 0zM1289.16 327.49 a5.8 5.8 0 1 0 11.6 0 a5.8 5.8 0 1 0 -11.6 0zM1389.62 37.49 a5.8 5.8 0 1 0 11.6 0 a5.8 5.8 0 1 0 -11.6 0zM1439.86 66.49 a5.8 5.8 0 1 0 11.6 0 a5.8 5.8 0 1 0 -11.6 0zM1439.86 124.49 a5.8 5.8 0 1 0 11.6 0 a5.8 5.8 0 1 0 -11.6 0zM1389.62 153.49 a5.8 5.8 0 1 0 11.6 0 a5.8 5.8 0 1 0 -11.6 0zM1339.39 124.49 a5.8 5.8 0 1 0 11.6 0 a5.8 5.8 0 1 0 -11.6 0zM1339.39 66.49 a5.8 5.8 0 1 0 11.6 0 a5.8 5.8 0 1 0 -11.6 0zM1389.62 385.49 a5.8 5.8 0 1 0 11.6 0 a5.8 5.8 0 1 0 -11.6 0zM1439.86 414.49 a5.8 5.8 0 1 0 11.6 0 a5.8 5.8 0 1 0 -11.6 0zM1439.86 472.49 a5.8 5.8 0 1 0 11.6 0 a5.8 5.8 0 1 0 -11.6 0zM1389.62 501.49 a5.8 5.8 0 1 0 11.6 0 a5.8 5.8 0 1 0 -11.6 0zM1339.39 472.49 a5.8 5.8 0 1 0 11.6 0 a5.8 5.8 0 1 0 -11.6 0zM1339.39 414.49 a5.8 5.8 0 1 0 11.6 0 a5.8 5.8 0 1 0 -11.6 0zM1389.62 559.49 a5.8 5.8 0 1 0 11.6 0 a5.8 5.8 0 1 0 -11.6 0zM1339.39 588.49 a5.8 5.8 0 1 0 11.6 0 a5.8 5.8 0 1 0 -11.6 0zM1289.16 559.49 a5.8 5.8 0 1 0 11.6 0 a5.8 5.8 0 1 0 -11.6 0zM1289.16 501.49 a5.8 5.8 0 1 0 11.6 0 a5.8 5.8 0 1 0 -11.6 0zM1439.86 -49.51 a5.8 5.8 0 1 0 11.6 0 a5.8 5.8 0 1 0 -11.6 0zM1490.09 -20.51 a5.8 5.8 0 1 0 11.6 0 a5.8 5.8 0 1 0 -11.6 0zM1490.09 37.49 a5.8 5.8 0 1 0 11.6 0 a5.8 5.8 0 1 0 -11.6 0zM1389.62 -20.51 a5.8 5.8 0 1 0 11.6 0 a5.8 5.8 0 1 0 -11.6 0zM1490.09 385.49 a5.8 5.8 0 1 0 11.6 0 a5.8 5.8 0 1 0 -11.6 0zM1540.32 414.49 a5.8 5.8 0 1 0 11.6 0 a5.8 5.8 0 1 0 -11.6 0zM1540.32 472.49 a5.8 5.8 0 1 0 11.6 0 a5.8 5.8 0 1 0 -11.6 0zM1490.09 501.49 a5.8 5.8 0 1 0 11.6 0 a5.8 5.8 0 1 0 -11.6 0z" fill="url(&quot;#SvgjsLinearGradient1213&quot;)"></path></g><defs><mask id="SvgjsMask1212"><rect width="1440" height="560" fill="#ffffff"></rect></mask><linearGradient x1="220.03199999999998" y1="-220.02399999999997" x2="1219.9679999999998" y2="780.024" gradientUnits="userSpaceOnUse" id="SvgjsLinearGradient1213"><stop stop-color="rgba(255, 107, 107, 1)" offset="0"></stop><stop stop-color="rgba(255, 204, 0, 1)" offset="1"></stop></linearGradient></defs></svg>